# xmcd
#
# Track frame offsets: 
#        150
#        17936
#        33612
#        60483
#        79503
#        102565
#        151149
#        186307
#        218497
#
# Disc length: 3202 seconds
#
# Revision: 1
# Processed by: cddbd v1.5.1PL0 Copyright (c) Steve Scherf et al.
# Submitted via: ExactAudioCopy v0.95a5
#
DISCID=6f0c8009
DTITLE=Chain - Towards The Blues [30th Anniversary]
DYEAR=1971
DGENRE=Blues
TTITLE0=Black and Blue [Single Version]
TTITLE1=Judgement
TTITLE2=Blow In D
TTITLE3=Thirty Two [Twenty Blues]
TTITLE4=Snatch It Back and Hold It
TTITLE5=Boogie
TTITLE6=Booze Is Bad News Blues
TTITLE7=Albert Gooses Gonna Turn The Blues
TTITLE8=Black and Blue [Album Version]
EXTD=
EXTT0=
EXTT1=
EXTT2=
EXTT3=
EXTT4=
EXTT5=
EXTT6=
EXTT7=
EXTT8=
PLAYORDER=
